<?xml version="1.0" standalone="no"?>
<!DOCTYPE svg PUBLIC "-//W3C//DTD SVG 20010904//EN"
 "http://www.w3.org/TR/2001/REC-SVG-20010904/DTD/svg10.dtd">
<svg version="1.0" xmlns="http://www.w3.org/2000/svg"
 width="720.000000pt" height="720.000000pt" viewBox="0 0 720.000000 720.000000"
 preserveAspectRatio="xMidYMid meet">
<metadata>
Created by potrace 1.14, written by Peter Selinger 2001-2017
</metadata>
<g transform="translate(0.000000,720.000000) scale(0.100000,-0.100000)"
fill="#000000" stroke="none">
<path d="M3369 7196 c-2 -2 -38 -6 -79 -9 -115 -9 -290 -35 -415 -62 -5 -1
-28 -5 -50 -10 -78 -15 -295 -76 -397 -111 -518 -180 -971 -463 -1367 -854
-79 -78 -117 -119 -208 -222 -60 -68 -197 -253 -268 -363 -66 -102 -189 -311
-190 -324 -1 -3 -13 -28 -27 -56 -14 -27 -45 -95 -68 -150 -23 -55 -49 -115
-57 -134 -51 -116 -145 -445 -178 -626 -10 -49 -19 -99 -21 -110 -2 -11 -6
-44 -10 -73 -3 -29 -7 -61 -9 -71 -26 -135 -27 -700 -1 -837 2 -10 7 -46 11
-79 9 -86 42 -253 71 -370 14 -55 27 -104 28 -110 23 -106 136 -403 222 -583
467 -981 1377 -1708 2439 -1950 93 -22 178 -38 230 -46 17 -2 48 -7 70 -11
258 -39 707 -42 965 -5 41 5 93 13 115 16 22 3 47 7 55 9 8 2 31 7 50 11 19 3
40 7 45 8 6 2 28 6 50 11 200 38 521 148 753 256 56 26 104 47 105 46 1 -1 16
8 34 21 17 12 34 22 38 22 17 0 284 167 410 257 181 128 419 345 584 530 209
236 425 564 552 838 22 50 52 113 65 142 13 28 24 58 24 65 0 8 4 18 9 24 23
24 136 387 166 534 23 110 45 237 50 285 4 33 9 62 10 65 17 30 27 585 13 735
-18 182 -51 386 -87 535 -7 25 -14 54 -16 64 -58 250 -215 633 -368 897 -278
481 -679 906 -1136 1202 -249 162 -404 243 -666 347 -162 65 -418 143 -535
165 -28 5 -50 10 -125 25 -27 5 -68 12 -90 15 -22 3 -51 8 -65 10 -14 3 -50 7
-80 10 -30 3 -68 8 -85 11 -35 5 -561 15 -566 10z"/>
</g>
</svg>
